# xmcd CD database file
#
# Track frame offsets:
#	150
#	10110
#	33322
#	52595
#	60412
#	79447
#	98017
#	117950
#	126235
#	149095
#	174005
#	185927
#	207615
#	229260
#	249950
#	267100
#	287667
#	309417
#	331442
#
# Disc length: 4680 seconds
#
# Revision: 1
# Processed by: cddbd v1.5.2PL0 Copyright (c) Steve Scherf et al.
# Submitted via: CDex 1.70beta2
#
DISCID=0c124613
DTITLE=112 - 112
DYEAR=1996
DGENRE=R&B
TTITLE0=112 Intro
TTITLE1=Now That We're Done
TTITLE2=Pleasure and Pain
TTITLE3=Why (Interlude)
TTITLE4=Cupid
TTITLE5=Call My Name
TTITLE6=Come See Me
TTITLE7=Sexy You (Interlude)
TTITLE8=Can I Touch You
TTITLE9=I Can't Believe feat. Faith Evans
TTITLE10=Keep It Real (Interlude)
TTITLE11=Only You -  Bad Boy Remix feat. The Notorious B.I.G. and Mase
TTITLE12=I Will Be There
TTITLE13=In Love With You
TTITLE14=Just A Little While
TTITLE15=Why Does
TTITLE16=This Is Your Day
TTITLE17=Throw It Away
TTITLE18=Only You - Clean Radio Mix feat. The Notorious B.I.G.
EXTD=YEAR: 1996
EXTT0=
EXTT1=
EXTT2=
EXTT3=
EXTT4=
EXTT5=
EXTT6=
EXTT7=
EXTT8=
EXTT9=
EXTT10=
EXTT11=
EXTT12=
EXTT13=
EXTT14=
EXTT15=
EXTT16=
EXTT17=
EXTT18=
PLAYORDER=
